<?xml version="1.0" encoding="utf-8"?>
<!-- Generator: Adobe Illustrator 27.4.0, SVG Export Plug-In . SVG Version: 6.00 Build 0)  -->
<svg version="1.1" id="Layer_1" xmlns="http://www.w3.org/2000/svg" xmlns:xlink="http://www.w3.org/1999/xlink" x="0px" y="0px"
	 viewBox="0 0 500 500" style="enable-background:new 0 0 500 500;" xml:space="preserve">
<style type="text/css">
	.st0{fill:#007ACC;}
	.st1{fill:#FFFFFF;}
</style>
<g>
	<path class="st0" d="M0,247.3l2.7-250l500,5.5l-5.5,500l-500-5.5"/>
	<path class="st1" d="M109.6,249.3l-0.2,20.4l65,0.7l-2,185l46.1,0.5l2-185l65,0.7l0.2-20c0.1-11.2,0.2-20.4-0.3-20.6
		c0-0.4-39.6-0.9-87.7-1.5l-87.5-0.6l-0.2,20.5L109.6,249.3L109.6,249.3z M402,231.7c12.7,3.1,22.4,9,31.1,18.2
		c4.6,5.1,11.3,13.9,11.8,16.1c0,0.7-21.8,15.1-35,23.1c-0.5,0.4-2.5-1.8-4.4-5c-6.4-9.3-13-13.4-23.3-14.3
		c-15-1.2-25.1,6.6-25.2,19.7c0,4,0.7,6.3,2.1,9.5c3.3,6.9,9.5,11.1,28.8,19.8c35.6,15.8,51,26.1,60.2,40.7
		c10.4,16.4,12.5,41.9,5.2,60.9c-8.2,20.8-27.9,34.7-55.8,39c-8.8,1.4-28.8,0.9-38.1-0.8c-20-4-39-14.2-50.6-27.2
		c-4.6-5.1-13.3-18.5-12.8-19.4l4.8-2.9l18.9-10.7l14.2-8.1l3.2,4.4c4.1,6.5,13.2,15.4,18.5,18.5c16.2,8.6,37.9,7.7,48.8-2
		c4.7-4.2,6.7-8.7,6.8-14.9c0.1-5.7-0.8-8.4-3.6-12.8c-3.9-5.5-11.9-10.1-34.3-20.4c-25.8-11.3-36.7-18.4-46.8-29.3
		c-5.8-6.6-11.1-16.7-13.5-25.1c-1.8-7.3-2.2-25-0.4-32.1c5.6-24.9,24.7-42.2,51.8-46.9c8.8-1.7,29.4-0.7,38,1.7L402,231.7
		L402,231.7z"/>
</g>
</svg>
