<?xml version="1.0" encoding="utf-8"?>
<!-- Generator: Adobe Illustrator 27.2.0, SVG Export Plug-In . SVG Version: 6.00 Build 0)  -->
<svg version="1.1" id="Calque_1" xmlns="http://www.w3.org/2000/svg" xmlns:xlink="http://www.w3.org/1999/xlink" x="0px" y="0px"
	 viewBox="0 0 500 500" style="enable-background:new 0 0 500 500;" xml:space="preserve">
<style type="text/css">
	.st0{fill:#001E36;}
	.st1{fill:#31A8FF;}
</style>
<g>
	<path class="st0" d="M88.5,0h322.9c49,0,88.5,40.6,88.5,90.8v318.4c0,50.2-39.6,90.8-88.5,90.8H88.5C39.6,500,0,459.4,0,409.2V90.8
		C0,40.6,39.6,0,88.5,0z"/>
	<g>
		<path class="st1" d="M95.7,358.1V138.2c0-1.5,0.6-2.4,2.1-2.4c3.6,0,7.1,0,12-0.2c5.1-0.2,10.5-0.2,16.2-0.4
			c5.8-0.2,12-0.2,18.6-0.4c6.6-0.2,13-0.2,19.4-0.2c17.5,0,32.1,2.1,44,6.6c10.7,3.6,20.5,9.6,28.6,17.5
			c6.8,6.8,12.2,15.2,15.6,24.4c3.2,9,4.9,18.2,4.9,27.8c0,18.4-4.3,33.5-12.8,45.5c-8.5,12-20.5,20.9-34.4,26.1
			c-14.5,5.3-30.6,7.3-48.1,7.3c-5.1,0-8.5,0-10.7-0.2c-2.1-0.2-5.1-0.2-9.2-0.2v68.6c0.2,1.5-0.9,2.8-2.4,3H98.3
			C96.6,360.9,95.7,360,95.7,358.1L95.7,358.1z M142.3,177.1v71.8c3,0.2,5.8,0.4,8.3,0.4H162c8.3,0,16.7-1.3,24.6-3.8
			c6.8-1.9,12.8-6,17.5-11.3c4.5-5.3,6.6-12.6,6.6-22c0.2-6.6-1.5-13.2-4.9-19c-3.6-5.6-8.8-9.8-15-12.2c-7.9-3.2-16.5-4.5-25.2-4.3
			c-5.6,0-10.5,0-14.5,0.2C146.8,176.7,143.8,176.9,142.3,177.1L142.3,177.1z M390.6,235.9c-6.4-3.4-13.2-5.8-20.5-7.3
			c-7.9-1.7-15.8-2.8-23.9-2.8c-4.3-0.2-8.8,0.4-12.8,1.5c-2.8,0.6-5.1,2.1-6.6,4.3c-1.1,1.7-1.7,3.8-1.7,5.8s0.9,3.8,2.1,5.6
			c1.9,2.4,4.5,4.3,7.3,5.8c4.9,2.6,10,4.9,15.2,7.1c11.5,3.8,22.6,9.2,32.9,15.6c7.1,4.5,12.8,10.5,16.9,17.7
			c3.4,6.8,5.1,14.3,4.9,22c0.2,10-2.8,20.1-8.3,28.4c-6,8.5-14.3,15.2-23.9,19c-10.5,4.5-23.3,6.8-38.7,6.8
			c-9.8,0-19.4-0.9-29.1-2.8c-7.5-1.3-15-3.6-21.8-6.8c-1.5-0.9-2.6-2.4-2.4-4.1v-37.2c0-0.6,0.2-1.5,0.9-1.9
			c0.6-0.4,1.3-0.2,1.9,0.2c8.3,4.9,17.1,8.3,26.5,10.5c8.1,2.1,16.7,3.2,25.2,3.2c8.1,0,13.9-1.1,17.7-3c3.4-1.5,5.8-5.1,5.8-9
			c0-3-1.7-5.8-5.1-8.5c-3.4-2.8-10.5-6-20.9-10c-10.9-3.8-20.9-9-30.3-15.4c-6.6-4.7-12.2-10.9-16.2-18.2
			c-3.4-6.8-5.1-14.3-4.9-21.8c0-9.2,2.6-17.9,7.3-25.9c5.3-8.5,13.2-15.4,22.4-19.7c10-5.1,22.6-7.5,37.8-7.5
			c8.8,0,17.7,0.6,26.5,1.9c6.4,0.9,12.6,2.6,18.4,4.9c0.9,0.2,1.7,1.1,2.1,1.9c0.2,0.9,0.4,1.7,0.4,2.6v34.8c0,0.9-0.4,1.7-1.1,2.1
			C392.5,236.3,391.4,236.3,390.6,235.9L390.6,235.9z"/>
	</g>
</g>
</svg>
