<?xml version="1.0" encoding="utf-8"?>
<!-- Generator: Adobe Illustrator 27.2.0, SVG Export Plug-In . SVG Version: 6.00 Build 0)  -->
<svg version="1.1" id="Calque_1" xmlns="http://www.w3.org/2000/svg" xmlns:xlink="http://www.w3.org/1999/xlink" x="0px" y="0px"
	 viewBox="0 0 500 500" style="enable-background:new 0 0 500 500;" xml:space="preserve">
<style type="text/css">
	.st0{fill:#330000;}
	.st1{fill:#FF9A00;}
</style>
<path class="st0" d="M88.5,0h322.9c49,0,88.5,40.6,88.5,90.8v318.4c0,50.2-39.6,90.8-88.5,90.8H88.5C39.6,500,0,459.4,0,409.2V90.8
	C0,40.6,39.6,0,88.5,0z"/>
<g>
	<path class="st1" d="M250.1,317h-79.5l-16.2,50.2c-0.4,1.9-2.1,3.2-4.1,3h-40.2c-2.4,0-3-1.3-2.4-3.8l68.8-198.1
		c0.6-2.1,1.3-4.5,2.1-7.1c0.9-4.5,1.3-9.2,1.3-13.9c-0.2-1.1,0.6-2.1,1.7-2.4h55.3c1.7,0,2.6,0.6,2.8,1.7l78,220.1
		c0.6,2.4,0,3.4-2.1,3.4h-44.7c-1.5,0.2-3-0.9-3.4-2.4L250.1,317z M183,273.6h54.3c-1.3-4.5-3-9.8-4.9-15.4
		c-1.9-5.8-3.8-12-5.8-18.4c-2.1-6.6-4.1-13-6.2-19.7s-4.1-12.8-5.8-19c-1.7-6-3.2-11.5-4.7-16.7h-0.4c-1.9,9.2-4.3,18.4-7.3,27.6
		c-3.2,10.3-6.4,20.9-9.8,31.6C189.4,254.6,186.2,264.6,183,273.6L183,273.6z M365.5,182.4c-7.1,0.2-13.9-2.6-19-7.5
		c-4.9-5.3-7.5-12.4-7.3-19.7c-0.2-7.3,2.6-14.1,7.7-19c5.1-4.9,12-7.5,19-7.5c8.3,0,14.7,2.6,19.4,7.5c4.7,5.1,7.3,12,7.1,19
		c0.2,7.3-2.4,14.3-7.5,19.7C380,180,372.8,182.8,365.5,182.4L365.5,182.4z M341.6,367.8V203.3c0-2.1,0.9-3,2.8-3h42.3
		c1.9,0,2.8,1.1,2.8,3v164.5c0,2.4-0.9,3.4-2.8,3.4h-41.9C342.6,371.3,341.6,370,341.6,367.8z"/>
</g>
</svg>
