<?xml version="1.0" encoding="utf-8"?>
<!-- Generator: Adobe Illustrator 27.2.0, SVG Export Plug-In . SVG Version: 6.00 Build 0)  -->
<svg version="1.1" id="Calque_1" xmlns="http://www.w3.org/2000/svg" xmlns:xlink="http://www.w3.org/1999/xlink" x="0px" y="0px"
	 viewBox="0 0 100 100" style="enable-background:new 0 0 100 100;" xml:space="preserve">
<style type="text/css">
	.st0{fill:#764ABC;}
</style>
<g>
	<path class="st0" d="M69.2,68.7c3.7-0.4,6.5-3.5,6.3-7.3c-0.1-3.8-3.3-6.8-7.1-6.8h-0.3c-3.9,0.1-7,3.4-6.8,7.3
		c0.1,1.9,0.9,3.5,2,4.7c-4.3,8.5-10.9,14.7-20.8,19.9C35.9,90,28.9,91.3,22,90.4c-5.7-0.8-10.1-3.3-12.9-7.5C5,76.7,4.6,70,8,63.3
		c2.4-4.8,6.2-8.4,8.6-10.1c-0.5-1.6-1.3-4.4-1.6-6.5C-3.4,60-1.5,78,4.1,86.5c4.2,6.3,12.7,10.3,22,10.3c2.5,0,5.1-0.3,7.6-0.9
		C49.9,92.7,62.2,83,69.2,68.7z"/>
	<path class="st0" d="M91.5,53c-9.6-11.3-23.8-17.5-40-17.5h-2c-1.1-2.3-3.5-3.8-6.2-3.8H43c-3.9,0.1-7,3.4-6.8,7.3
		c0.1,3.8,3.3,6.8,7.1,6.8h0.3c2.8-0.1,5.2-1.9,6.2-4.3H52c9.6,0,18.7,2.8,27,8.2c6.3,4.2,10.9,9.6,13.4,16.2
		c2.2,5.3,2,10.5-0.3,14.9c-3.5,6.7-9.5,10.4-17.3,10.4c-5.1,0-9.9-1.5-12.4-2.7C61,90,58.4,92,56.7,93.3c5.4,2.5,11,3.9,16.3,3.9
		c12.2,0,21.1-6.7,24.6-13.4C101.2,76.5,101,63.8,91.5,53z"/>
	<path class="st0" d="M27.2,70.9c0.1,3.8,3.3,6.8,7.1,6.8h0.3c3.9-0.1,7-3.4,6.8-7.3c-0.1-3.8-3.3-6.8-7.1-6.8H34
		c-0.3,0-0.6,0-0.9,0.1c-5.2-8.6-7.3-18-6.6-28.1c0.5-7.6,3-14.2,7.5-19.6c3.7-4.7,10.8-7,15.6-7.1C63,8.6,68.7,25.3,69.1,32
		c1.6,0.4,4.4,1.3,6.3,1.9C73.9,13.4,61.2,2.8,49.1,2.8C37.7,2.8,27.2,11,23,23.2c-5.8,16.2-2,31.8,5.1,44.1
		C27.4,68.1,27,69.5,27.2,70.9z"/>
</g>
</svg>
