<?xml version="1.0" encoding="utf-8"?>
<!-- Generator: Adobe Illustrator 27.2.0, SVG Export Plug-In . SVG Version: 6.00 Build 0)  -->
<svg version="1.1" id="Layer_1" xmlns="http://www.w3.org/2000/svg" xmlns:xlink="http://www.w3.org/1999/xlink" x="0px" y="0px"
	 viewBox="0 0 500 500" style="enable-background:new 0 0 500 500;" xml:space="preserve">
<style type="text/css">
	.st0{fill:#CD6799;}
</style>
<path class="st0" d="M430.5,278c-17.4,0.1-32.6,4.3-45.3,10.5c-4.7-9.2-9.3-17.4-10.1-23.5c-0.9-7-2-11.3-0.9-19.7
	c1.1-8.4,6-20.4,5.9-21.3s-1.1-5.2-11.1-5.3c-10-0.1-18.7,1.9-19.7,4.6c-1,2.6-2.9,8.7-4.2,14.9c-1.7,9.1-20.1,41.7-30.6,58.8
	c-3.4-6.7-6.3-12.5-6.9-17.2c-0.9-7-2-11.3-0.9-19.7c1.1-8.4,6-20.4,5.9-21.3c-0.1-0.9-1.1-5.2-11.1-5.3s-18.7,1.9-19.7,4.6
	c-1,2.6-2.1,8.9-4.2,14.9c-2.1,6-26.5,60.5-32.9,74.5c-3.3,7.2-6.1,13-8.1,16.9l0,0c0,0-0.1,0.3-0.4,0.7c-1.7,3.4-2.7,5.2-2.7,5.2
	s0,0,0,0.1c-1.4,2.5-2.8,4.7-3.6,4.7c-0.5,0-1.6-6.6,0.2-15.5c3.7-18.9,12.3-48.3,12.2-49.3c0-0.5,1.6-5.7-5.7-8.3
	c-7.1-2.6-9.7,1.7-10.3,1.7c-0.6,0-1.1,1.6-1.1,1.6s7.9-33.1-15.2-33.1c-14.4,0-34.3,15.8-44.2,30c-6.2,3.4-19.5,10.6-33.6,18.4
	c-5.4,3-11,6-16.2,8.9c-0.4-0.4-0.7-0.8-1.1-1.2c-27.9-29.9-79.6-51-77.4-91.1c0.8-14.6,5.8-53,99.3-99.5
	c76.9-37.9,138.1-27.4,148.7-4.1c15.2,33.2-32.8,95-112.2,103.9c-30.3,3.4-46.2-8.3-50.2-12.7c-4.2-4.6-4.8-4.8-6.4-3.9
	c-2.6,1.4-0.9,5.5,0,7.9c2.4,6.2,12.1,17.2,28.7,22.6c14.6,4.7,50.1,7.4,93.2-9.2c48.1-18.6,85.8-70.4,74.7-113.8
	c-11.1-44-84.1-58.5-153.2-34C118.7,89,74.2,112,42.1,142C4,177.6-2,208.5,0.5,221.5c8.9,46,72.3,76,97.7,98.2
	c-1.3,0.7-2.5,1.4-3.5,1.9C82,327.9,33.6,353.2,21.6,380c-13.7,30.3,2.2,52.1,12.7,55c32.6,9,66.1-7.2,84.1-34.1s15.8-61.7,7.5-77.7
	c-0.1-0.2-0.2-0.4-0.4-0.5c3.3-1.9,6.7-3.9,10-5.8c6.5-3.8,12.9-7.4,18.4-10.3c-3.1,8.5-5.4,18.6-6.5,33.2
	c-1.4,17.2,5.7,39.5,14.9,48.2c4.1,3.8,9,3.9,12.1,3.9c10.8,0,15.6-9,21-19.5c6.6-13,12.5-28,12.5-28s-7.4,40.7,12.7,40.7
	c7.3,0,14.7-9.5,18-14.3c0,0.1,0,0.1,0,0.1s0.2-0.3,0.5-0.9c0.7-1.2,1.2-1.9,1.2-1.9s0-0.1,0-0.2c2.9-5.1,9.5-16.7,19.3-36
	c12.6-24.8,24.7-55.9,24.7-55.9s1.1,7.6,4.8,20.2c2.2,7.4,6.8,15.5,10.4,23.4c-2.9,4.1-4.7,6.4-4.7,6.4s0,0,0.1,0.1
	c-2.4,3.1-4.9,6.5-7.8,9.8c-10,11.9-21.8,25.5-23.5,29.4c-1.9,4.7-1.5,8,2.2,10.8c2.6,2,7.4,2.3,12.2,2c9-0.6,15.3-2.8,18.4-4.2
	c4.8-1.7,10.5-4.4,15.8-8.3c9.8-7.2,15.7-17.5,15.2-31.1c-0.3-7.5-2.7-15-5.8-22c0.9-1.3,1.7-2.6,2.6-3.8
	c15.4-22.6,27.4-47.3,27.4-47.3s1.1,7.6,4.8,20.2c1.8,6.4,5.6,13.3,8.9,20.1c-14.5,11.8-23.5,25.5-26.7,34.4
	c-5.8,16.6-1.3,24.1,7.2,25.8c3.8,0.8,9.3-1,13.3-2.7c5.1-1.6,11.1-4.5,16.9-8.7c9.8-7.2,19.2-17.3,18.6-30.9
	c-0.3-6.2-1.9-12.3-4.2-18.3c12.3-5.1,28.2-7.9,48.5-5.6c43.5,5.1,52.1,32.2,50.4,43.7c-1.6,11.4-10.8,17.6-13.8,19.5
	c-3,1.9-4,2.6-3.7,3.9c0.4,2,1.8,1.9,4.4,1.6c3.6-0.6,22.8-9.2,23.7-30.2C501.3,307.1,475.7,277.8,430.5,278z M95.2,391.1
	c-14.4,15.7-34.5,21.6-43.2,16.6c-9.3-5.4-5.7-28.6,12.1-45.2c10.8-10.1,24.7-19.5,33.9-25.3c2.1-1.3,5.2-3.1,9-5.4
	c0.6-0.4,1-0.5,1-0.5l0,0c0.7-0.5,1.5-0.9,2.2-1.4C116.6,353.7,110.3,374.6,95.2,391.1z M200.2,319.7c-5,12.2-15.5,43.6-21.9,41.8
	c-5.5-1.5-8.9-25.2-1.1-48.7c3.9-11.8,12.2-25.8,17.1-31.3c7.9-8.8,16.5-11.7,18.6-8.1C215.6,278,203.3,312,200.2,319.7z
	 M286.9,361.1c-2.1,1.1-4.1,1.8-5,1.3c-0.6-0.4,0.9-1.8,0.9-1.8s10.9-11.7,15.2-17c2.5-3.1,5.4-6.8,8.5-10.9c0,0.4,0,0.8,0,1.2
	C306.4,347.9,292.9,357.3,286.9,361.1z M353.7,345.9c-1.6-1.1-1.3-4.7,3.9-16.2c2-4.5,6.8-12,14.9-19.2c0.9,2.9,1.6,5.8,1.5,8.4
	C373.9,336.6,361.3,343.2,353.7,345.9z"/>
</svg>
