<?xml version="1.0" encoding="utf-8"?>
<!-- Generator: Adobe Illustrator 27.2.0, SVG Export Plug-In . SVG Version: 6.00 Build 0)  -->
<svg version="1.1" id="Calque_1" xmlns="http://www.w3.org/2000/svg" xmlns:xlink="http://www.w3.org/1999/xlink" x="0px" y="0px"
	 viewBox="0 0 500 500" style="enable-background:new 0 0 500 500;" xml:space="preserve">
<style type="text/css">
	.st0{fill:#F08705;}
	.st1{fill:#DF6C0C;}
	.st2{fill:#FFFFFF;}
	.st3{fill:#333333;}
</style>
<g>
	<path class="st0" d="M435.8,355.8c0,9-7.4,15.9-15.9,15.9H80c-9,0-15.9-7.4-15.9-15.9V15.9C64.2,6.9,71.5,0,80,0h339.9
		c9,0,15.9,7.4,15.9,15.9L435.8,355.8L435.8,355.8z"/>
	<path class="st1" d="M435.8,355.8c0,9-7.4,15.9-15.9,15.9H191.4l-74.1-75.2l46-75.2L299.9,51.5l135.5,139.6L435.8,355.8z"/>
	<path class="st2" d="M369.4,207.7h-39.1l-41.4-70.4c9.2-1.8,16.1-10.1,16.1-19.8V64.4c0-11.3-9-20.2-20.2-20.2h-69
		c-11.3,0-20.2,9-20.2,20.2v53.1c0,9.9,6.9,17.9,15.9,19.8l-41.4,70.6h-39.1c-11.3,0-20.2,9-20.2,20.2v53.1c0,11.3,9,20.2,20.2,20.2
		h69c11.3,0,20.2-9,20.2-20.2v-53.1c0-11.3-9-20.2-20.2-20.2h-6.7l40.9-69.9h32l41.2,69.9h-6.9c-11.3,0-20.2,9-20.2,20.2v53.1
		c0,11.3,9,20.2,20.2,20.2h69c11.3,0,20.2-9,20.2-20.2v-53.1C389.6,216.9,380.6,207.7,369.4,207.7L369.4,207.7z"/>
	<path class="st3" d="M116.8,496.8c0,0.5,0,0.7-0.2,1.1c-0.2,0.2-0.5,0.5-0.9,0.7s-1.1,0.2-1.8,0.5c-0.7,0-1.8,0.2-3,0.2
		s-2.3,0-3-0.2c-0.7,0-1.4-0.2-1.8-0.5c-0.5-0.2-0.9-0.5-1.1-0.7c-0.2-0.2-0.2-0.7-0.2-1.1V491c-2.8,3-5.5,5.1-8.5,6.7
		c-3,1.6-6.2,2.3-9.9,2.3c-3.9,0-7.4-0.7-10.1-2.3c-2.8-1.6-5.1-3.7-6.7-6.2c-1.8-2.5-3-5.7-3.7-9.2c-0.7-3.4-1.1-7.1-1.1-11
		c0-4.6,0.5-8.7,1.4-12.6c0.9-3.7,2.5-6.9,4.4-9.4c1.8-2.5,4.4-4.6,7.1-6c2.8-1.4,6.2-2.1,9.9-2.1c3,0,5.5,0.7,8,1.8
		c2.3,1.1,4.8,3,7.1,5.3V420c0-0.5,0-0.7,0.2-1.1c0.2-0.2,0.7-0.7,1.1-0.7c0.5-0.2,1.4-0.5,2.3-0.5c0.9-0.2,2.1-0.2,3.7-0.2
		c1.4,0,2.5,0,3.7,0.2c0.9,0.2,1.6,0.2,2.3,0.5c0.5,0.2,0.9,0.5,1.1,0.7c0.2,0.2,0.5,0.7,0.5,1.1L116.8,496.8z M102.1,461.8
		c-2.1-2.8-4.1-4.6-6-6.2c-1.8-1.4-3.9-2.1-6-2.1c-1.8,0-3.7,0.5-5.1,1.4c-1.4,0.9-2.5,2.3-3.4,3.9c-0.9,1.6-1.4,3.4-1.8,5.3
		c-0.5,2.1-0.7,3.9-0.7,6c0,2.3,0.2,4.4,0.5,6.4c0.5,2.1,0.9,3.9,1.8,5.5c0.7,1.6,1.8,3,3.2,3.9c1.4,0.9,3,1.4,5.1,1.4
		c0.9,0,2.1-0.2,3-0.5s1.8-0.7,3-1.4c0.9-0.7,2.1-1.6,3-2.5c1.1-1.1,2.3-2.3,3.4-3.9L102.1,461.8L102.1,461.8z M164.7,449.4
		c0,1.4,0,2.5-0.2,3.4c0,0.9-0.2,1.6-0.5,2.1c-0.2,0.5-0.5,0.9-0.7,1.1c-0.2,0.2-0.7,0.2-0.9,0.2c-0.2,0-0.7,0-1.1-0.2
		c-0.5-0.2-0.9-0.2-1.4-0.5c-0.5-0.2-0.9-0.2-1.6-0.5c-0.7-0.2-1.1-0.2-1.8-0.2c-0.9,0-1.6,0.2-2.5,0.5c-0.9,0.2-1.6,0.9-2.5,1.6
		s-1.8,1.6-2.8,2.8c-0.9,1.1-2.1,2.5-3,4.4v32.7c0,0.5-0.2,0.7-0.5,0.9s-0.7,0.5-1.1,0.7c-0.5,0.2-1.4,0.2-2.3,0.5
		c-0.9,0-2.1,0.2-3.7,0.2c-1.4,0-2.5,0-3.7-0.2c-0.9,0-1.6-0.2-2.3-0.5c-0.5-0.2-0.9-0.5-1.1-0.7s-0.5-0.7-0.5-0.9v-52.2
		c0-0.5,0-0.7,0.2-0.9c0.2-0.2,0.5-0.5,1.1-0.7c0.5-0.2,1.1-0.2,2.1-0.5c0.7,0,1.8-0.2,3-0.2c1.1,0,2.3,0,3.2,0.2
		c0.9,0,1.4,0.2,1.8,0.5c0.5,0.2,0.7,0.5,0.9,0.7c0.2,0.2,0.2,0.7,0.2,0.9v6.4c1.4-1.8,2.8-3.4,3.9-4.8s2.3-2.3,3.4-3
		s2.3-1.1,3.2-1.6c1.1-0.2,2.3-0.5,3.2-0.5h1.6c0.7,0,1.1,0.2,1.8,0.2c0.7,0.2,1.1,0.2,1.6,0.5l0.9,0.5c0.2,0.2,0.5,0.5,0.5,0.7
		s0.2,0.5,0.2,0.9s0.2,0.9,0.2,1.8C164.7,446.9,164.7,447.8,164.7,449.4L164.7,449.4z M218,497c0,0.5-0.2,0.9-0.7,1.4
		c-0.5,0.2-0.9,0.5-1.8,0.7c-0.9,0.2-2.1,0.2-3.7,0.2c-1.8,0-3,0-3.9-0.2c-0.7-0.2-1.4-0.5-1.6-0.7s-0.5-0.7-0.5-1.4v-4.1
		c-2.1,2.3-4.6,4.1-7.4,5.3c-2.8,1.4-5.7,1.8-9.2,1.8c-2.8,0-5.3-0.5-7.6-1.1s-4.4-1.8-6-3.2c-1.6-1.4-3-3.2-3.9-5.3
		c-0.9-2.1-1.4-4.6-1.4-7.4c0-3,0.7-5.7,1.8-8c1.2-2.3,3-4.1,5.3-5.5c2.3-1.4,5.3-2.5,8.7-3.2c3.4-0.7,7.6-1.1,12.2-1.1h5.1v-3.2
		c0-1.6-0.2-3-0.5-4.4c-0.2-1.1-0.9-2.3-1.6-3c-0.7-0.9-1.8-1.4-3-1.8c-1.4-0.5-2.8-0.7-4.8-0.7c-2.5,0-4.6,0.2-6.7,0.9
		c-1.8,0.5-3.7,1.1-5.1,1.8l-3.7,1.8c-0.9,0.5-1.8,0.9-2.5,0.9c-0.5,0-0.9-0.2-1.1-0.5c-0.2-0.2-0.7-0.7-0.9-1.1
		c-0.2-0.5-0.5-1.1-0.5-1.8c-0.2-0.7-0.2-1.6-0.2-2.5c0-1.1,0-2.1,0.2-2.8c0.2-0.7,0.5-1.4,1.1-1.8c0.5-0.5,1.6-1.1,2.8-1.8
		c1.4-0.7,3-1.4,4.8-1.8c1.8-0.7,3.9-1.1,6-1.4c2.1-0.5,4.4-0.5,6.7-0.5c4.1,0,7.6,0.5,10.6,1.1c3,0.7,5.3,2.1,7.1,3.7
		c1.8,1.6,3.2,3.9,4.1,6.4c0.9,2.5,1.4,5.7,1.4,9.4L218,497z M203.5,474.5H198c-2.3,0-4.4,0.2-6.2,0.5c-1.6,0.5-3,0.9-4.1,1.6
		c-1.1,0.7-1.8,1.6-2.3,2.5c-0.5,0.9-0.7,2.1-0.7,3.4c0,2.3,0.7,3.9,2.1,5.1c1.4,1.1,3.2,1.8,5.7,1.8c2.1,0,3.9-0.5,5.7-1.6
		c1.8-1.1,3.4-2.5,5.3-4.6L203.5,474.5L203.5,474.5z M310.9,444.3c0,0.5,0,0.9-0.2,1.6c-0.2,0.7-0.2,1.6-0.7,2.8l-14,47.4
		c-0.2,0.7-0.5,1.1-0.7,1.6s-0.7,0.7-1.4,0.9c-0.7,0.2-1.6,0.5-2.8,0.5c-1.1,0-2.8,0.2-4.6,0.2c-1.8,0-3.4,0-4.6-0.2
		c-1.1,0-2.1-0.2-2.8-0.5c-0.7-0.2-1.1-0.5-1.6-0.9c-0.2-0.5-0.5-0.9-0.7-1.6l-8.7-31.7l-0.2-0.5l-0.2,0.5l-8.1,31.7
		c-0.2,0.7-0.5,1.1-0.7,1.6s-0.7,0.7-1.6,0.9c-0.7,0.2-1.6,0.5-2.8,0.5c-1.1,0-2.8,0.2-4.6,0.2c-2.1,0-3.4,0-4.8-0.2
		c-1.1,0-2.1-0.2-2.8-0.5c-0.7-0.2-1.1-0.5-1.6-0.9c-0.2-0.5-0.5-0.9-0.7-1.6l-13.8-47.4c-0.5-1.1-0.7-2.1-0.7-2.8
		c0-0.7-0.2-1.1-0.2-1.6s0-0.7,0.2-0.9c0.2-0.2,0.7-0.5,1.1-0.7s1.4-0.2,2.3-0.5c0.9,0,2.1-0.2,3.7-0.2c1.6,0,2.8,0,3.9,0.2
		c0.9,0,1.8,0.2,2.3,0.5c0.5,0.2,0.9,0.5,1.1,0.7c0.2,0.2,0.5,0.7,0.5,1.1l10.3,38.4l0.2,0.7l0.2-0.7l9.7-38.4
		c0.2-0.5,0.2-0.9,0.5-1.1c0.2-0.2,0.7-0.7,1.1-0.7c0.5-0.2,1.1-0.2,2.1-0.5c0.9,0,2.1-0.2,3.4-0.2c1.4,0,2.5,0,3.4,0.2
		c0.9,0,1.6,0.2,2.1,0.5s0.9,0.5,1.1,0.7s0.5,0.7,0.5,0.9l10.3,38.6l0.2,0.7l0.2-0.7l9.9-38.4c0-0.5,0.2-0.9,0.5-1.1
		c0.2-0.2,0.7-0.7,1.1-0.7c0.5-0.2,1.4-0.2,2.3-0.5c0.9,0,2.1-0.2,3.7-0.2c1.4,0,2.5,0,3.4,0.2c0.9,0,1.6,0.2,2.1,0.5
		c0.5,0.2,0.9,0.5,1.1,0.7C310.9,443.7,310.9,443.9,310.9,444.3L310.9,444.3z M332.8,490.3c0,3.7-0.7,6-1.8,7.4
		c-1.4,1.1-3.4,1.8-6.9,1.8c-3.2,0-5.5-0.7-6.9-1.8c-1.1-1.1-1.8-3.7-1.8-6.9c0-3.7,0.7-6.2,1.8-7.4c1.4-1.1,3.7-1.8,6.9-1.8
		c3.2,0,5.5,0.7,6.7,1.8C332.3,484.4,332.8,486.9,332.8,490.3L332.8,490.3z"/>
	<path class="st0" d="M363.8,426.6c0,3-0.7,5.1-1.8,6.2c-1.1,1.1-3.4,1.6-6.7,1.6c-3.2,0-5.5-0.5-6.7-1.6s-1.8-3-1.8-6
		c0-3,0.7-5.1,1.8-6.2c1.2-1.1,3.4-1.8,6.7-1.8c3.2,0,5.5,0.5,6.7,1.6C363.4,421.8,363.8,423.9,363.8,426.6L363.8,426.6z
		 M362.9,496.8c0,0.5-0.2,0.7-0.5,0.9c-0.2,0.2-0.7,0.5-1.1,0.7s-1.4,0.2-2.3,0.5c-0.9,0-2.1,0.2-3.7,0.2c-1.4,0-2.5,0-3.7-0.2
		c-0.9,0-1.6-0.2-2.3-0.5c-0.5-0.2-0.9-0.5-1.1-0.7c-0.2-0.2-0.5-0.7-0.5-0.9v-52.2c0-0.5,0.2-0.7,0.5-0.9c0.2-0.2,0.7-0.5,1.1-0.7
		s1.4-0.5,2.3-0.5c0.9-0.2,2.1-0.2,3.7-0.2c1.6,0,2.5,0,3.7,0.2c0.9,0.2,1.6,0.2,2.3,0.5c0.5,0.2,0.9,0.5,1.1,0.7s0.5,0.7,0.5,0.9
		V496.8z M431.2,470.1c0,4.4-0.7,8.5-1.8,12.2c-1.1,3.7-3,6.9-5.3,9.4c-2.3,2.8-5.3,4.6-9,6.2c-3.7,1.4-7.8,2.1-12.6,2.1
		c-4.6,0-8.7-0.7-12.2-1.8c-3.4-1.4-6.2-3.2-8.5-5.5c-2.3-2.5-3.9-5.5-5.1-9.2c-1.1-3.7-1.6-7.6-1.6-12.4c0-4.4,0.7-8.5,1.8-12.2
		c1.1-3.7,3-6.9,5.3-9.4c2.3-2.5,5.3-4.6,9-6.2c3.7-1.4,7.8-2.1,12.6-2.1c4.6,0,8.7,0.7,12.2,1.8c3.4,1.4,6.2,3.2,8.5,5.5
		c2.3,2.5,3.9,5.5,5.1,9.2C430.5,461.4,431.2,465.5,431.2,470.1z M416,470.6c0-2.5-0.2-5.1-0.7-7.1s-1.1-4.1-2.1-5.7
		s-2.3-2.8-3.9-3.7s-3.7-1.4-6.2-1.4c-2.3,0-4.1,0.5-5.7,1.1c-1.6,0.7-3,2.1-4.1,3.4c-1.1,1.6-1.8,3.4-2.3,5.5
		c-0.5,2.1-0.7,4.6-0.7,7.4c0,2.5,0.2,5.1,0.7,7.1s1.1,4.1,2.1,5.7c0.9,1.6,2.3,2.8,3.9,3.7c1.6,0.9,3.7,1.4,6.2,1.4
		c2.3,0,4.1-0.5,5.7-1.1c1.6-0.7,3-2.1,4.1-3.4c1.1-1.6,1.8-3.4,2.3-5.5C415.8,475.8,416,473.3,416,470.6z"/>
</g>
</svg>
