<?xml version="1.0" encoding="utf-8"?>
<!-- Generator: Adobe Illustrator 27.2.0, SVG Export Plug-In . SVG Version: 6.00 Build 0)  -->
<svg version="1.1" id="Calque_1" xmlns="http://www.w3.org/2000/svg" xmlns:xlink="http://www.w3.org/1999/xlink" x="0px" y="0px"
	 viewBox="0 0 500 500" style="enable-background:new 0 0 500 500;" xml:space="preserve">
<style type="text/css">
	.st0{fill-rule:evenodd;clip-rule:evenodd;}
	.st1{fill:none;}
	.st2{fill:#1ABCFE;}
	.st3{fill:#0ACF83;}
	.st4{fill:#FF7262;}
	.st5{fill:#F24E1E;}
	.st6{fill:#A259FF;}
</style>
<g>
	<path d="M120.9,181.2v106.2l13.6,0.1v-50.5h32.9v-13.4h-32.9v-28.9h42.9v-13.4H120.9z M202,202.8c4.9,0,8.9-4,8.9-8.9
		s-4-8.9-8.9-8.9c-4.9,0-8.9,4-8.9,8.9S197.1,202.8,202,202.8z M195.1,216.1v71.3h13.6v-71.3H195.1z"/>
	<path class="st0" d="M259.4,214.1c-18.2,0-30.8,15.4-30.8,33.6s12.6,33.6,30.8,33.6c8.3,0,15.1-3.2,20.1-8.4v9.4
		c0,11.8-9.3,21.7-21.4,21.7c-4.4,0-8.7-1.7-12.1-4.1l-6.9,11.9c5.5,3.5,12,5.6,18.9,5.6c19.4,0,35-15.7,35-35v-66.1h-13.6v6.4
		C274.5,217.3,267.7,214.1,259.4,214.1z M242.2,247.6c0-11.3,8.6-20.2,18.6-20.2s18.6,8.9,18.6,20.2c0,11.3-8.6,20.2-18.6,20.2
		C250.9,267.8,242.2,258.9,242.2,247.6L242.2,247.6z"/>
	<path d="M342.4,227.4c-8.1,0-14.6,6.9-14.6,14.9v45h-13.6v-71.3h13.6v6.5c4-5.2,9.9-8.6,17.6-8.6c9.6,0,16.9,4.7,21.2,12
		c4.7-7,12.4-12,21.8-12c15.6,0,25.2,12.5,25.3,28.1v45.3H400v-45.1c0-8.1-6.6-14.9-14.6-14.9s-14.6,6.9-14.6,14.9v45.1h-13.6v-45.1
		C357,234.3,350.5,227.4,342.4,227.4z"/>
	<path class="st0" d="M486.4,224.2c-6.1-6.3-14.4-10.1-24-10.1c-20.3,0-34.8,17.2-34.8,37.7s14.4,37.7,34.8,37.7
		c9.6,0,18-3.9,24-10.1v8H500v-71.3h-13.6V224.2z M441.2,251.8c0-13.6,10.4-24.4,22.6-24.4c12.1,0,22.6,10.7,22.6,24.4
		c0,13.6-10.4,24.4-22.6,24.4C451.6,276.1,441.2,265.4,441.2,251.8z"/>
	<path class="st1" d="M0,181.2h91.8v137.6H0V181.2z"/>
	<path class="st2" d="M45.9,250c0-12.6,10.3-23,23-23c12.6,0,23,10.3,23,23c0,12.6-10.3,23-23,23C56.2,273,45.9,262.7,45.9,250
		L45.9,250z"/>
	<path class="st3" d="M0,295.9c0-12.6,10.3-23,23-23h23v23c0,12.6-10.3,23-23,23S0,308.6,0,295.9L0,295.9z"/>
	<path class="st4" d="M45.9,181.2v45.9h23c12.6,0,23-10.3,23-23c0-12.6-10.3-23-23-23L45.9,181.2L45.9,181.2z"/>
	<path class="st5" d="M0,204.2c0,12.6,10.3,23,23,23h23v-45.9H23C10.3,181.2,0,191.5,0,204.2z"/>
	<path class="st6" d="M0,250c0,12.6,10.3,23,23,23h23v-45.9H23C10.3,227.1,0,237.4,0,250z"/>
</g>
</svg>
