<?xml version="1.0" encoding="utf-8"?>
<!-- Generator: Adobe Illustrator 27.2.0, SVG Export Plug-In . SVG Version: 6.00 Build 0)  -->
<svg version="1.1" id="Calque_1" xmlns="http://www.w3.org/2000/svg" xmlns:xlink="http://www.w3.org/1999/xlink" x="0px" y="0px"
	 viewBox="0 0 700 700" style="enable-background:new 0 0 700 700;" xml:space="preserve">
<style type="text/css">
	.st0{fill-rule:evenodd;clip-rule:evenodd;}
</style>
<path class="st0" d="M157.1,2c-24.2,0-48.7,5.8-71.2,17.5v0c-3.4,1.8-5.7,5-6.3,8.8c-0.6,3.8,0.7,7.6,3.4,10.3l77.6,77.6l-44.4,44.4
	L38.6,83.1c-2.7-2.7-6.5-4-10.3-3.4c-3.8,0.6-7.1,2.9-8.8,6.3c-31.2,60.1-19.9,133.5,27.9,181.4v0c0,0,0,0,0,0
	c40.9,40.9,101.1,55.5,155.9,38.4l40.6,40.6L73.5,516.9c-1.4,1.3-2.4,3-3,4.8l-44.4,137l0,0c-1.4,4.3-0.3,9,2.9,12.2
	s7.9,4.3,12.2,2.9l137-44.4h0c1.8-0.6,3.5-1.6,4.8-2.9L353.6,456l40.6,40.6c-17.1,54.9-2.4,115,38.4,155.9c0,0,0,0,0,0
	c47.9,47.8,121.3,59.1,181.4,27.9l0,0c3.4-1.8,5.7-5,6.3-8.8s-0.7-7.6-3.4-10.3l-77.5-77.5l44.4-44.4l77.6,77.6v0
	c2.7,2.7,6.5,4,10.3,3.4c3.8-0.6,7.1-2.9,8.8-6.3c31.2-60.1,19.8-133.6-28-181.5c-40.9-40.9-101.1-55.5-155.9-38.4L456,353.7
	l214.9-214.9h0c4.7-4.7,4.7-12.3,0-17l-92.7-92.7c-2.3-2.3-5.3-3.5-8.5-3.5c-3.2,0-6.2,1.3-8.5,3.5L346.3,244l-40.6-40.6
	c17.1-54.9,2.4-115-38.4-155.9C237.4,17.6,197.5,1.9,157.1,2L157.1,2z M158,26c33.9,0,67.2,13.4,92.3,38.5
	c36.2,36.2,48,90,30.4,138.1c-1.6,4.4-0.5,9.3,2.8,12.6l45.8,45.8l-68.5,68.5L215,283.6v0c-3.3-3.3-8.2-4.4-12.6-2.8
	c-48.1,17.6-101.9,5.8-138.1-30.4l0,0C27.9,213.9,16.5,160,34,112.4l73.6,73.6c4.7,4.7,12.3,4.7,17,0l61.4-61.4v0
	c4.7-4.7,4.7-12.3,0-17L112.2,34C127.1,28.6,142.6,25.9,158,26L158,26z M569.8,54.6l75.7,75.7l-63.4,63.4l-75.7-75.7L569.8,54.6z
	 M489.4,134.9l75.7,75.7L430.9,344.8h0c-0.2,0.2-0.3,0.3-0.5,0.5c-0.2,0.1-0.3,0.3-0.5,0.5l-85,85L200.1,575.6l-75.7-75.7
	l144.8-144.8c0.2-0.1,0.3-0.3,0.5-0.5l84.9-84.9c0.2-0.2,0.3-0.3,0.5-0.5c0.3-0.3,0.6-0.6,0.8-0.9L489.4,134.9z M439,370.6
	l45.8,45.8c3.3,3.3,8.2,4.4,12.6,2.8c48.1-17.6,101.9-5.8,138.1,30.4c36.5,36.5,47.9,90.5,30.4,138.1l-73.7-73.7v0
	c-4.7-4.7-12.3-4.7-17,0L514,575.5c-4.7,4.7-4.7,12.3,0,17l73.6,73.6c-47.6,17.5-101.5,6.1-138-30.4c-36.1-36.2-48-90-30.4-138.1
	c1.6-4.4,0.5-9.3-2.8-12.6l-45.9-45.9L439,370.6z M107.5,516.8l75.7,75.7l-15,15L56.3,643.8l36.2-111.9L107.5,516.8z"/>
</svg>
