<?xml version="1.0" encoding="utf-8"?>
<!-- Generator: Adobe Illustrator 27.2.0, SVG Export Plug-In . SVG Version: 6.00 Build 0)  -->
<svg version="1.1" id="Calque_1" xmlns="http://www.w3.org/2000/svg" xmlns:xlink="http://www.w3.org/1999/xlink" x="0px" y="0px"
	 viewBox="0 0 500 500" style="enable-background:new 0 0 500 500;" xml:space="preserve">
<style type="text/css">
	.st0{fill:#E44D26;}
	.st1{fill:#F16529;}
	.st2{fill:#EBEBEB;}
	.st3{fill:#FFFFFF;}
</style>
<g>
	<path d="M105.9,0h22.5v22.3H149V0h22.5v67.4H149V44.9h-20.5v22.5h-22.7 M201.2,22.5h-19.8V0h62.2v22.5h-19.9v44.9h-22.5 M253.4,0
		H277l14.5,23.7L305.9,0h23.5v67.4h-22.5V34l-15.7,24.2L275.5,34v33.4h-22.1 M340.5,0H363v45.1h31.8v22.3h-54.3"/>
	<path class="st0" d="M105.1,460L72.9,98.2h354.3l-32.2,361.5L249.7,500"/>
	<path class="st1" d="M250,469.2V127.9h144.8l-27.6,308.6"/>
	<path class="st2" d="M138.7,172.2H250v44.3h-62.7l4.1,45.4H250v44.2h-99.2 M152.7,328.4h44.5l3.1,35.4l49.6,13.3v46.3L159,398"/>
	<path class="st3" d="M360.9,172.2H249.8v44.3h107 M352.8,261.9h-103v44.3h54.7l-5.2,57.6l-49.5,13.3v46.1l90.8-25.2"/>
</g>
</svg>
