<?xml version="1.0" encoding="utf-8"?>
<!-- Generator: Adobe Illustrator 27.2.0, SVG Export Plug-In . SVG Version: 6.00 Build 0)  -->
<svg version="1.1"
	 id="svg3476" xmlns:cc="http://creativecommons.org/ns#" xmlns:dc="http://purl.org/dc/elements/1.1/" xmlns:rdf="http://www.w3.org/1999/02/22-rdf-syntax-ns#" xmlns:sodipodi="http://sodipodi.sourceforge.net/DTD/sodipodi-0.dtd" xmlns:svg="http://www.w3.org/2000/svg" xmlns:inkscape="http://www.inkscape.org/namespaces/inkscape" inkscape:version="0.91 r13725" sodipodi:docname="CSS3.svg"
	 xmlns="http://www.w3.org/2000/svg" xmlns:xlink="http://www.w3.org/1999/xlink" x="0px" y="0px" viewBox="0 0 500 500"
	 style="enable-background:new 0 0 500 500;" xml:space="preserve">
<style type="text/css">
	.st0{fill:#264DE4;}
	.st1{fill:#2965F1;}
	.st2{fill:#EBEBEB;}
	.st3{fill:#FFFFFF;}
</style>
<sodipodi:namedview  bordercolor="#666666" borderopacity="1.0" fit-margin-bottom="0" fit-margin-left="0" fit-margin-right="0" fit-margin-top="0" id="base" inkscape:current-layer="layer1" inkscape:cx="181.367" inkscape:cy="256" inkscape:document-units="px" inkscape:pageopacity="0.0" inkscape:pageshadow="2" inkscape:window-height="704" inkscape:window-maximized="1" inkscape:window-width="1366" inkscape:window-x="0" inkscape:window-y="27" inkscape:zoom="0.35" pagecolor="#ffffff" showgrid="false">
	</sodipodi:namedview>
<g id="layer1" transform="translate(-193.633,-276.3622)" inkscape:groupmode="layer" inkscape:label="Calque 1">
	<g id="g3013" transform="translate(119,276.3622)">
		<polygon id="polygon2989" class="st0" points="501.7,98.3 469.5,459.8 324.4,500 179.8,459.8 147.5,98.3 		"/>
		<polygon id="polygon2991" class="st1" points="441.8,436.8 469.4,127.8 324.6,127.8 324.6,469.3 		"/>
		<polygon id="polygon2993" class="st2" points="221.4,261.9 225.4,306.3 324.6,306.3 324.6,261.9 		"/>
		<polygon id="polygon2995" class="st2" points="324.6,172.2 324.5,172.2 213.4,172.2 217.5,216.5 324.6,216.5 		"/>
		<polygon id="polygon2997" class="st2" points="324.6,423.2 324.6,377.1 324.4,377.2 275,363.8 271.9,328.5 247.9,328.5 
			227.4,328.5 233.6,398.1 324.4,423.3 		"/>
		<path id="path2999" inkscape:connector-curvature="0" d="M230.9,0h53.7v22.5h-31.2v22.5h31.2v22.5h-53.7V0z"/>
		<path id="path3001" inkscape:connector-curvature="0" d="M295.3,0H349v19.5h-31.2v3.9H349v44.9h-53.7V47.9h31.2v-3.9h-31.2V0z"/>
		<path id="path3003" inkscape:connector-curvature="0" d="M359.8,0h53.7v19.5h-31.2v3.9h31.2v44.9h-53.7V47.9H391v-3.9h-31.2V0z"/>
		<polygon id="polygon3005" class="st3" points="379.1,306.3 373.9,363.8 324.5,377.1 324.5,423.3 415.4,398.1 416.1,390.6 
			426.5,273.8 427.6,261.9 435.6,172.2 324.5,172.2 324.5,216.5 387,216.5 382.9,261.9 324.5,261.9 324.5,306.3 		"/>
	</g>
</g>
</svg>
