<?xml version="1.0" encoding="utf-8"?>
<!-- Generator: Adobe Illustrator 27.2.0, SVG Export Plug-In . SVG Version: 6.00 Build 0)  -->
<svg version="1.1" id="Calque_1" xmlns="http://www.w3.org/2000/svg" xmlns:xlink="http://www.w3.org/1999/xlink" x="0px" y="0px"
	 viewBox="0 0 700 700" style="enable-background:new 0 0 700 700;" xml:space="preserve">
<style type="text/css">
	.st0{fill-rule:evenodd;clip-rule:evenodd;}
</style>
<g>
	<path d="M154.6,403.3C71.7,425,19.4,477.6,2.5,551.4c-4.9,21.1,2.7,27.3,12.2,30.2c65.2,20.1,185.8,27.2,233.2,27.2
		s168-7.1,233.2-27.2c9.5-2.9,17.1-9.1,12.2-30.2c-16.9-73.9-69.2-126.5-152.1-148.2l-85.7,71.8c-4.4,3.7-10.7,3.7-15.1,0
		L154.6,403.3z"/>
	<path class="st0" d="M247.9,91.1c-72.1,0-130.2,58.7-130.2,131.6v8.9c0,72.9,58.1,131.6,130.2,131.6S378,304.5,378,231.6v-8.9
		C378,149.8,320,91.1,247.9,91.1L247.9,91.1z"/>
	<path class="st0" d="M573.8,185c-33.2,0-65.1,13.2-88.6,36.7c-23.5,23.5-36.7,55.3-36.7,88.5c0,3.1,0.1,6.1,0.4,9.2L412,350.6v19.2
		h51.8c10.7,19.8,26.6,36.4,46,48c19.4,11.6,41.5,17.7,64.1,17.7c33.2,0,65.1-13.2,88.5-36.7c23.5-23.5,36.7-55.3,36.7-88.5
		s-13.2-65.1-36.7-88.5C638.9,198.2,607,185,573.8,185L573.8,185z M573.8,237.6c11.7,0,21.1,9.5,21.1,21.1
		c0,11.7-9.5,21.1-21.1,21.1c-11.7,0-21.1-9.5-21.1-21.1C552.7,247.1,562.2,237.6,573.8,237.6L573.8,237.6z M543.3,293.6h36.3
		c6.5,0,11.7,5.2,11.7,11.7v48.8h13.1v28.8h-61.1v-28.8h13.1v-38.3l-13.1-5.8L543.3,293.6z"/>
</g>
</svg>
