<?xml version="1.0" encoding="utf-8"?>
<!-- Generator: Adobe Illustrator 27.2.0, SVG Export Plug-In . SVG Version: 6.00 Build 0)  -->
<svg version="1.1" id="Calque_1" xmlns="http://www.w3.org/2000/svg" xmlns:xlink="http://www.w3.org/1999/xlink" x="0px" y="0px"
	 viewBox="0 0 500 500" style="enable-background:new 0 0 500 500;" xml:space="preserve">
<style type="text/css">
	.st0{fill:#001E36;}
	.st1{fill:#31A8FF;}
</style>
<g>
	<path class="st0" d="M88.5,0h322.9C460.4,0,500,40.6,500,90.8v318.4c0,50.2-39.6,90.8-88.5,90.8H88.5C39.6,500,0,459.4,0,409.2
		V90.8C0,40.6,39.6,0,88.5,0z"/>
	<g>
		<path class="st1" d="M176,350.8H57c-2.1,0-2.9-1.2-2.9-3.7V134.2c0-2.1,0.8-2.9,2.7-2.9h36.9c1.4,0,2.1,0.8,2.1,2.3v174.9h86.6
			c2,0,2.5,1,2.1,2.9l-5.5,36.3c-0.2,1.2-0.6,2.1-1.2,2.5C177.3,350.6,176.6,350.8,176,350.8L176,350.8z M205.6,184.1h33
			c2,0,3.1,1,3.9,3.3c0.6,1.4,1.2,3.1,1.4,4.9c0.4,2.1,0.6,4.3,0.8,6.4c0.2,2.3,0.2,4.9,0.2,7.4c5.5-7,12.3-13.3,20.1-17.9
			c8.4-5.1,18.1-7.8,27.9-7.4c2,0,2.7,1,2.7,2.9v40.6c0,1.8-1,2.3-2.9,2.3c-6.6-0.4-13.3,0-19.7,1.4c-5.5,1.2-10.5,3.1-15.6,5.7
			c-3.7,2-7.2,4.7-10.1,7.8v106.3c0,2.1-0.8,2.9-2.5,2.9h-36.3c-2.1,0-2.9-1-2.9-3.3V231.9c0-5.1,0-10.1-0.2-15.6
			c0-5.5-0.2-10.9-0.4-16.2c-0.2-4.7-0.6-9.2-1.2-13.8c0-0.6,0-1.2,0.4-2C204.6,184.1,205,183.9,205.6,184.1L205.6,184.1z
			 M443.3,153.3c-4.3-2-9.2-2.9-14-3.5c-7-0.8-14.2-1.2-21.3-1.2c-20.5,0-38.4,4.3-53,12.9c-14.6,8.6-26.7,21.3-34.5,36.5
			c-8.2,15.4-12.1,33.7-12.1,54.2c-0.2,12.3,1.4,24.6,4.7,36.7c2.9,10.1,7.2,19.7,13.3,28.5c5.7,8.2,12.5,15,20.5,20.7
			s17,9.9,26.5,12.5c9.8,2.7,20.3,4.1,30.4,4.1c7.2,0,14.4-0.4,21.5-1.4c5.9-0.6,11.5-2.1,17-4.1c2.1-1,3.3-3.1,3.1-5.7v-31
			c0.2-1-0.2-2.3-1-3.1c-0.6-0.4-1.8-1-3.3,0.2c-4.7,1.8-9.6,2.9-14.6,3.5c-6,0.6-12.1,0.8-18.1,0.8c-5.5,0-11.1-0.8-16.2-2.3
			c-5.7-1.4-10.9-3.7-15.8-6.6c-5.3-3.1-9.6-7.2-13.1-12.1c-3.9-5.5-7-11.5-9.2-17.9c-2.3-8-3.5-16-3.3-24.4
			c-0.2-11.5,2.1-23,6.8-33.3c4.3-9,11.1-16.6,19.5-21.8c9.2-5.5,19.7-8.2,30.4-8c6.4,0,13.1,0.4,19.5,1.8c5.3,0.8,10.1,2.5,15,5.1
			c0.8,0.4,2,0.4,2.7,0c0.8-0.8,1.4-2,1.2-3.1v-32.6C445.9,156.2,445.1,154.4,443.3,153.3L443.3,153.3z"/>
	</g>
</g>
</svg>
