<?xml version="1.0" encoding="utf-8"?>
<!-- Generator: Adobe Illustrator 27.4.0, SVG Export Plug-In . SVG Version: 6.00 Build 0)  -->
<svg version="1.1" id="Calque_1" xmlns="http://www.w3.org/2000/svg" xmlns:xlink="http://www.w3.org/1999/xlink" x="0px" y="0px"
	 viewBox="0 0 500 500" style="enable-background:new 0 0 500 500;" xml:space="preserve">
<style type="text/css">
	.st0{fill:url(#SVGID_1_);}
</style>
<linearGradient id="SVGID_1_" gradientUnits="userSpaceOnUse" x1="-47.9862" y1="669.6465" x2="-47.7806" y2="669.5754" gradientTransform="matrix(2500 0 0 -1500 119952 1004665.0625)">
	<stop  offset="0" style="stop-color:#2298BD"/>
	<stop  offset="1" style="stop-color:#0ED7B5"/>
</linearGradient>
<path class="st0" d="M250,100c-66.7,0-108.3,33.3-125,100c25-33.3,54.2-45.8,87.5-37.5c19,4.8,32.6,18.6,47.7,33.8
	C284.7,221.2,313,250,375,250c66.7,0,108.3-33.3,125-100c-25,33.3-54.2,45.8-87.5,37.5c-19-4.8-32.6-18.6-47.7-33.8
	C340.3,128.8,312,100,250,100z M125,250C58.3,250,16.7,283.3,0,350c25-33.3,54.2-45.8,87.5-37.5c19,4.8,32.6,18.6,47.7,33.8
	C159.7,371.2,188,400,250,400c66.7,0,108.3-33.3,125-100c-25,33.3-54.2,45.8-87.5,37.5c-19-4.8-32.6-18.6-47.7-33.8
	C215.3,278.8,187,250,125,250z"/>
</svg>
