<?xml version="1.0" encoding="utf-8"?>
<!-- Generator: Adobe Illustrator 27.2.0, SVG Export Plug-In . SVG Version: 6.00 Build 0)  -->
<svg version="1.1" id="Calque_1" xmlns="http://www.w3.org/2000/svg" xmlns:xlink="http://www.w3.org/1999/xlink" x="0px" y="0px"
	 viewBox="0 0 500 500" style="enable-background:new 0 0 500 500;" xml:space="preserve">
<style type="text/css">
	.st0{fill:#99425B;}
	.st1{fill:#FFFFFF;}
</style>
<g>
	<path class="st0" d="M448,246.2c0-25.7-20.8-46.5-46.5-46.5c-1.6,0-3.3,0.1-4.9,0.3l63.9-188.5H188.8l63.8,188.4
		c-0.9-0.1-1.9-0.1-2.8-0.1c-25.7,0-46.5,20.8-46.5,46.5c0,20.8,13.6,38.4,32.4,44.4c-9.9,17.2-22.4,32.7-36.6,46
		c-19.3,18.2-41.3,32-65.2,40.5c-28.4-14.6-41.8-47.1-29.7-75.5c1.4-3.2,2.8-6.5,4.1-9.7c20.6-4.8,35.9-23.3,35.9-45.3
		c0-25.7-20.8-46.5-46.5-46.5s-46.5,20.8-46.5,46.5c0,15.8,7.8,29.7,19.8,38.1c-11.5,26.2-28.4,53.7-33.7,85.5
		c-6.3,38.1,0,78.6,32.9,101.5c76.8,53.2,160.2-33,248-54.7c31.8-7.9,66.8-6.6,94.9-22.8c21.1-12.2,35-32.4,38.9-55.1
		c3.9-22.4-1.8-44.8-14.8-62.9C444.2,267.6,448,257.1,448,246.2"/>
	<path class="st1" d="M440.8,336.9c-3.4,19.7-15.6,36.9-33.4,47.2c-16.6,9.6-36.5,12.5-57.6,15.5c-11.3,1.6-23,3.3-34.3,6.1
		c-30.1,7.4-59.3,21.9-87.6,36c-56.5,28.1-105.3,52.3-151.3,20.4C43,438.8,44.5,395.6,48.4,372c3.6-21.9,13.5-42.1,23-61.7
		c1.6-3.3,3.2-6.7,4.8-10c4.8,1.9,9.8,3.2,15,3.7c-9.7,32,5.6,66.7,37.5,83.1l4.4,2.2l4.6-1.6c25.3-9,48.5-23.4,69.2-42.9
		c13.3-12.6,24.8-26.5,34.3-41.4c2.9,0.4,5.8,0.7,8.7,0.7c29.3,0,53.6-21.9,57.4-50.3c12-0.4,24.8-0.4,36.8,0
		c3.8,28.3,28.1,50.3,57.4,50.3c12.3,0,23.6-3.8,33-10.4C441,307,443.4,322,440.8,336.9L440.8,336.9z M97.7,211.3
		c19.4,0,35.2,15.8,35.2,35.2c0,7-2,13.5-5.6,18.9c-5.8,9.1-15.8,15.4-27.2,16.2c-0.8,0.1-1.6,0.1-2.4,0.1c-4.3,0-8.5-0.8-12.3-2.2
		c-7.7-2.9-14.2-8.4-18.3-15.5c-3-5.3-4.6-11.3-4.6-17.4C62.5,227.1,78.3,211.3,97.7,211.3L97.7,211.3z M214.7,246.2
		c0-17.6,13-32.3,30-34.8c1.7-0.3,3.4-0.4,5.2-0.4c11.3,0,21.3,5.3,27.8,13.6c1.6,2.1,3,4.3,4.1,6.7c2.2,4.7,3.3,9.7,3.3,14.9
		c0,2.8-0.3,5.6-1,8.2c-3.4,14.3-15.7,25.3-30.7,26.8c-1.2,0.1-2.3,0.2-3.5,0.2c-6.8,0-13.4-2-19.1-5.6
		C221.1,269.4,214.7,258.5,214.7,246.2L214.7,246.2z M361.5,204.4c-7.7,7.3-13.2,16.6-15.9,26.8c-13.3-0.5-26.5-0.5-39.8,0
		c-3-11-9.1-20.8-17.4-28.2l36.4-73.6L361.5,204.4z M204.7,22.7h239.9L388,189.9c-2.4,0.6-4.8,1.3-7.2,2.2l-56-114.2l-56.1,113.5
		c-2.4-0.8-4.9-1.5-7.5-2L204.7,22.7z M436.6,246.2c0,3.5-0.5,6.9-1.5,10.2c-2.3,7.6-7.1,14.1-13.6,18.7c-5.9,4.1-12.9,6.3-20.1,6.3
		c-16.2,0-29.9-11.1-34-26c-0.8-3-1.2-6-1.2-9.1c0-4.8,1-9.4,2.7-13.6c0.9-2.1,2-4.2,3.3-6.1c6.3-9.3,17-15.5,29.1-15.5
		c1.1,0,2.2,0.1,3.3,0.2C422.6,212.8,436.6,227.9,436.6,246.2L436.6,246.2z M459.4,246.2c0-28.3-20.4-51.9-47.2-56.9L476.4,0H173
		l64.3,189.7c-25.9,5.8-45.3,28.9-45.3,56.5c0,20.7,10.9,38.9,27.4,49.2c-7.9,11.8-17.3,22.8-28,33c-17,16.1-36,28.2-56.4,36.2
		c-20.6-12.9-29.3-37.3-20.2-58.6l0.7-1.7l1.3-3.1c22.6-7.9,38.9-29.4,38.9-54.7c0-31.9-26-57.9-57.9-57.9s-57.9,26-57.9,57.9
		c0,16.1,6.6,30.7,17.3,41.2c-2,4.2-4,8.4-6.1,12.6c-9.7,20-20.8,42.7-25,67.9c-8.3,50.1,5.1,90.1,37.7,112.6
		c19.8,13.7,39.9,19.1,60.1,19.1c38.1,0,76.6-19.1,114.3-37.8c27.1-13.5,55.2-27.4,82.9-34.2c10.3-2.5,20.9-4.1,32.1-5.7
		c22.3-3.2,45.3-6.5,65.7-18.4c23.6-13.7,39.8-36.7,44.4-63c3.9-22.6-0.8-45.3-12.3-64.5C456.4,267.2,459.4,256.8,459.4,246.2
		L459.4,246.2z"/>
</g>
</svg>
