<?xml version="1.0" encoding="utf-8"?>
<!-- Generator: Adobe Illustrator 27.2.0, SVG Export Plug-In . SVG Version: 6.00 Build 0)  -->
<svg version="1.1" id="Calque_1" xmlns="http://www.w3.org/2000/svg" xmlns:xlink="http://www.w3.org/1999/xlink" x="0px" y="0px"
	 viewBox="0 0 700 700" style="enable-background:new 0 0 700 700;" xml:space="preserve">
<style type="text/css">
	.st0{fill-rule:evenodd;clip-rule:evenodd;}
</style>
<g>
	<path class="st0" d="M319.3,419.8l6,25h-21.5v138.4h234.1V444.9H394.1l6.3-25.3c0.6,0,1.3-0.3,1.9-0.6h148.5c2.5,0,4.4,0.6,6.7,1.9
		c1.9,0.9,3.5,2.5,4.7,4.7c1.3,1.9,1.6,4.1,1.6,6.3v164.7c0,2.2-0.3,4.4-1.6,6.3c-1.3,2.2-2.9,3.5-4.7,4.8c-2.2,1.3-4.1,1.9-6.7,1.9
		H450.1l10.5,15.2h50.7l8.2,14.9h-197l7.9-14.9h50.4l10.8-15.2H290.8c-2.2,0-4.4-0.6-6.3-1.9c-2.2-1.3-3.8-2.5-4.7-4.8
		c-1.3-1.9-1.9-4.1-1.9-6.3V431.9c0-2.2,0.6-4.4,1.9-6.3c0.9-2.2,2.5-3.8,4.7-4.7c1.9-1.3,4.1-1.9,6.3-1.9h26.3
		C317.7,419.2,318.4,419.5,319.3,419.8L319.3,419.8z"/>
	<path class="st0" d="M66.3,222.8l13-76.6c0.3-1.6,0.6-2.8,1.6-4.1c1.3-2.2,2.5-3.8,4.7-4.8c1.9-1.3,4.1-1.9,6.3-1.9
		c1,0,1.6,0,2.2,0.3l182.4,30.1c1.6,0.3,2.9,0.6,4.1,1.6c2.2,1.3,3.8,2.5,4.8,4.8c1.3,1.9,1.9,4.1,1.9,6.3c0,1,0,1.6-0.3,2.2
		l-8.9,52.3l-11.7-3.2c-0.9-0.3-1.6-0.3-2.5-0.3c-1.6,0-2.9,0.3-4.1,1.3c-1.6,0.6-2.5,1.6-3.2,3.2l-7,11.7l9.5-56.4l-156.5-26
		l-14.6,86.8C80.8,241.2,73.5,232,66.3,222.8L66.3,222.8z M78,311.2L64,392.6l156.5,26l20.9-123.5l13.6,13.6
		c-0.6,4.7-0.9,9.5-0.9,14.3c0,4.1,0.3,8.2,0.6,12.4l-21.9,21.9c-0.6,0.6-1,1.3-1.6,1.9c-0.6,1.3-0.9,2.9-0.9,4.4
		c0,1.6,0.3,2.9,0.9,4.1l18.7,32.9l-6,35.2c-0.3,1.6-0.6,3.2-1.6,4.4c-1.3,2.2-2.5,3.5-4.8,4.7c-1.9,1.3-4.1,1.9-6.3,1.9
		c-0.9,0-1.6,0-2.2-0.3L46.9,416.4c-1.6-0.3-2.9-0.6-4.1-1.6c-2.2-1.3-3.8-2.9-4.8-4.7c-1.3-2.2-1.9-4.1-1.9-6.6
		c0-0.6,0-1.3,0.3-1.9l19.6-117.2C63.4,293.2,70.7,302.3,78,311.2L78,311.2z"/>
	<path class="st0" d="M486.5,287.1c0-0.3,0.3-0.6,0.6-1c6,3.2,12.4,5.7,19,7.9c14.6,4.8,30.4,7.3,47.2,7.3h1.3h0.9v13v-13h0.6h0.9
		h0.6l-0.6,13l0.6-13h0.6h1.3l-1.6,13l1.6-13c0.3,0,0.3,0,0.6,0.3l-1.6,12.7l1.6-12.7h0.3l-1.6,12.7l1.6-12.7h0.9l-1.3,13l1.3-13
		h0.6h0.6c2.2,0.3,3.8,0.6,5.7,1.9c1.9,0.9,3.5,2.5,4.8,4.7c0,0.3,0.3,0.6,0.6,1.3c2.9,6.6,7.6,13,13.3,18.7
		c6,6,13.3,11.4,21.5,15.8c5.1,3.2,10.8,5.7,16.8,7.9c-1.3-1.6-2.2-2.9-3.2-4.4c-4.8-6.6-8.6-13.6-11.4-20.3
		c-1.6-3.8-2.9-7.3-3.8-11.1c-1-3.8-1.6-7.6-1.6-11.4c0-1.9,0.3-3.8,0.6-5.7c0.3-1.9,0.6-3.2,1.6-4.7c1.3-1.9,2.5-3.5,4.7-4.8
		c0.3-0.3,0.6-0.3,1.3-0.6c8.6-3.8,16.5-8.6,23.4-13.9c6.6-5.4,12.7-11.4,17.7-17.7c4.8-6.6,8.2-13.6,10.8-20.9
		c2.5-7.6,4.1-15.2,4.1-23.4c0-6-0.9-12-2.2-17.7c-1.6-5.7-3.5-11.1-6.3-16.2c-2.9-5.4-6-10.4-10.1-14.9c-3.8-4.8-8.6-9.2-13.6-13
		c-10.4-8.2-23.1-14.9-37.1-19.3c-14.2-4.8-30.1-7.3-47.2-7.3c-16.8,0-32.6,2.5-47.2,7.3c-13.9,4.4-26.3,11.1-36.7,19
		c-5.1,4.1-9.8,8.6-13.9,13.3c-3.8,4.4-7.3,9.5-9.8,14.9c-2.9,5.1-4.8,10.5-6.3,16.2c-1.3,5.7-2.2,11.7-2.2,17.7
		c0,6,0.9,12,2.2,17.4c0.3,0.9,0.6,1.9,0.6,2.9l-16.5,4.7c-3.5-2.5-7-4.7-10.8-7c-0.9-6-1.6-12-1.6-18.1c0-8.2,0.9-16.5,2.9-24.1
		c1.9-7.6,4.7-14.9,8.6-22.2c3.5-6.6,7.9-13.3,13.3-19.3c5.1-6.3,10.8-11.7,17.4-16.8c12.7-10.1,27.9-18.1,45-23.8
		c16.8-5.4,35.5-8.2,55.1-8.2c20,0,38.3,2.9,55.1,8.2c17.1,5.7,32.3,13.6,45.3,23.8c6.3,5.1,12.4,10.4,17.4,16.5
		c5.1,6.3,9.5,13,13.3,19.6c3.5,7.3,6.3,14.6,8.6,22.2c1.9,7.6,2.9,15.8,2.9,24.1c0,11.1-1.9,21.9-5.4,31.7
		c-3.5,10.1-8.2,19.3-14.6,28.2c-6.3,8.2-13.9,16.1-22.8,22.8c-6.3,5.1-13.3,9.5-20.9,13.3c0,0.6,0.3,0.9,0.3,1.3
		c0.6,2.2,1.3,4.4,2.2,7c2.2,5.1,5.4,10.4,9.2,15.8c7.6,11.4,17.4,22.2,25,30.4c0.6,0.6,1.3,1.6,1.9,2.5c1.3,1.9,1.6,4.1,1.6,6.3
		c0,2.5-0.3,4.4-1.6,6.7c-1.3,1.9-2.9,3.5-4.7,4.7c-2.2,1.3-4.1,1.6-6.7,1.6h-0.3c-10.5-0.3-21.2-1.9-32.3-5.4
		c-10.8-3.2-21.2-7.6-31-13c-10.1-5.7-19.3-12.7-26.9-20.3c-6-6-11.1-12.4-15.2-19.3h-0.3c-19.6,0-38.3-3.2-55.1-8.6
		c-10.8-3.5-21.2-7.9-30.4-13.6L486.5,287.1z"/>
	<path class="st0" d="M479.3,362.8l-25,43.1l-32.6-9.2c-8.6,7-17.7,13-27.9,16.5l-9.2,34.8h-49.1l-8.2-34.5
		c-5.7-2.2-10.8-4.4-15.8-7.6c-5.1-2.9-9.8-6.3-13.9-9.8l-34.5,10.1l-24.1-43.1l25-25c-1.3-10.5-1.6-21.5,0.6-32.6l-25-24.4
		l24.4-43.1l33.9,9.2c8.6-7,18.1-13,28.2-16.5l9.2-34.5l48.5,0.3l8.9,34.5c5.1,1.9,10.1,4.1,15.2,7.3c4.8,2.5,9.8,6,13.9,9.8v-0.3
		l34.2-10.1l24.4,43.4l-25,24.7c1.6,11.1,1.3,21.9-0.6,32.9L479.3,362.8z M318,297.9c-13.6,23.8-6,52.6,17.4,66.2
		c23.8,13.6,51.9,6,65.6-18.1c13.6-23.8,6.3-52.3-17.4-65.9C360.2,266.6,331.7,273.8,318,297.9L318,297.9z"/>
	<path class="st0" d="M9.6,212.7c-1-1.3-1.9-2.2-2.9-3.5c-10.5-12,13.3-31.7,23.1-18.4c0.9,0.9,1.6,1.9,2.5,2.9L9.6,212.7z
		 M37.8,200.4c34.5,43.4,69,86.8,103.6,130.2c3.2,12,6.6,24.4,9.8,36.4c-10.5-6.3-20.9-12.4-31.4-18.4
		c-34.8-43.1-70-86.1-104.8-129.2L37.8,200.4z"/>
	<path class="st0" d="M604.4,388.5c6,3.5,12,6.3,18.1,9.2c-3.2,14.9-7.9,29.1-13.6,42.8c-8.6,20.6-19.3,39.9-32.6,57.6V449
		c3.2-6,6-12,8.5-18.4c6-14.6,10.8-29.8,13.9-45.9C600.5,386,602.4,387.2,604.4,388.5L604.4,388.5z M462.1,108.8
		c-2.5-1.3-5.4-2.5-8.2-3.5c-29.8-12.4-63-19-98.2-19s-68.4,6.6-98.2,19c-20.9,8.5-40.2,19.9-57.6,33.3l-33.6-5.4
		c23.4-21.9,51-39.6,81.4-51.9c32.9-13.6,69.4-20.9,108-20.9c38.6,0,75.4,7.3,108.3,20.9c9.8,4.1,19.3,8.6,28.5,13.6
		C481.8,98.7,471.6,103.4,462.1,108.8L462.1,108.8z M135.3,448.7c11.7,22.5,26.3,42.4,43.7,60.2c22.2,21.9,48.8,39.6,78.5,51.9
		c1.9,0.6,3.8,1.6,6,2.2v27.9c-5.4-1.9-10.8-3.8-15.8-6c-32.9-13.6-62.4-33.3-87.1-57.6c-23.8-23.8-42.8-51.9-56.4-83.6L135.3,448.7
		z"/>
</g>
</svg>
